<svg width="223" height="253" viewBox="0 0 223 253" fill="none" xmlns="http://www.w3.org/2000/svg">
<path d="M20.6612 227.089L0.430664 0.195068H222.724L202.466 227.053L111.442 252.29L20.6612 227.089Z" fill="#E44F26"/>
<path d="M111.577 233.005L185.135 212.612L202.439 18.7515H111.577V233.005Z" fill="#F1662A"/>
<path d="M111.577 102.895H74.7534L72.2144 74.3997H111.577V46.5703H111.478H41.801L42.4673 54.0431L49.3008 130.725H111.577V102.895Z" fill="#EBEBEB"/>
<path d="M111.577 175.166L111.451 175.202L80.4609 166.838L78.4802 144.645H63.4176H50.5427L54.4412 188.329L111.451 204.157L111.577 204.121V175.166Z" fill="#EBEBEB"/>
<path d="M111.478 102.896V130.726H145.745L142.522 166.82L111.478 175.194V204.148L168.533 188.33L168.947 183.63L175.483 110.369L176.167 102.896H168.668H111.478Z" fill="white"/>
<path d="M111.478 46.5703V63.8568V74.3367V74.3997H178.607H178.697L179.256 68.1514L180.525 54.0431L181.191 46.5703H111.478Z" fill="white"/>
</svg>
