<svg width="223" height="223" viewBox="0 0 223 223" fill="none" xmlns="http://www.w3.org/2000/svg">
<path d="M0 0H222.293V222.293H0V0Z" fill="#F7DF1E"/>
<path d="M58.4491 185.765L75.4605 175.47C78.7424 181.288 81.7278 186.212 88.8888 186.212C95.7531 186.212 100.081 183.526 100.081 173.082V102.054H120.971V173.378C120.971 195.014 108.288 204.862 89.7843 204.862C73.0732 204.862 63.3727 196.207 58.4487 185.763" fill="black"/>
<path d="M132.317 183.526L149.327 173.678C153.804 180.99 159.624 186.362 169.919 186.362C178.575 186.362 184.094 182.034 184.094 176.065C184.094 168.903 178.425 166.366 168.874 162.189L163.653 159.949C148.581 153.534 138.584 145.477 138.584 128.466C138.584 112.798 150.521 100.86 169.174 100.86C182.454 100.86 192.004 105.486 198.867 117.573L182.602 128.017C179.021 121.602 175.142 119.065 169.174 119.065C163.056 119.065 159.176 122.945 159.176 128.017C159.176 134.285 163.056 136.822 172.008 140.702L177.23 142.94C194.987 150.551 204.985 158.309 204.985 175.767C204.985 194.569 190.213 204.864 170.367 204.864C150.969 204.864 138.434 195.613 132.317 183.526Z" fill="black"/>
</svg>
